<svg width="17" height="17" viewBox="0 0 17 17" fill="none" xmlns="http://www.w3.org/2000/svg">
<path id="ic_search" fill-rule="evenodd" clip-rule="evenodd" d="M12.1517 10.6912H11.38L11.1117 10.4249C12.0594 9.31982 12.6358 7.8872 12.6358 6.31754C12.6358 2.82831 9.80732 0 6.3179 0C2.82847 0 0 2.82831 0 6.31754C0 9.80676 2.82847 12.6351 6.3179 12.6351C7.88765 12.6351 9.31938 12.0597 10.4245 11.113L10.6928 11.3793V12.1491L15.5508 17L17 15.5509L12.1517 10.6912ZM6.5 10.7474C4.014 10.7474 2 8.73336 2 6.24736C2 3.76236 4.014 1.74736 6.5 1.74736C8.985 1.74736 11 3.76236 11 6.24736C11 8.73336 8.985 10.7474 6.5 10.7474Z" fill="white"/>
</svg>
