<svg width="51" height="48" viewBox="0 0 51 48" fill="none" xmlns="http://www.w3.org/2000/svg">
<g opacity="0.3">
<path fill-rule="evenodd" clip-rule="evenodd" d="M37.1115 27.5727C41.2068 24.896 43.9137 20.2647 43.9137 15C43.9137 6.71573 37.2114 0 28.9438 0C20.6761 0 13.9738 6.71573 13.9738 15C13.9738 20.2647 16.6807 24.896 20.776 27.5727C18.4994 28.4874 16.4112 29.7733 14.5859 31.3555L5.64888 22.4185C4.86783 21.6374 3.6015 21.6374 2.82045 22.4185L1.3934 23.8455C0.612355 24.6266 0.612355 25.8929 1.3934 26.674L10.6102 35.8907C8.32067 39.364 6.98786 43.526 6.98786 48H8.09328C10.4347 46.6531 16.1473 43.9461 21.8397 45.6718C29.2485 47.9178 48.3557 49.2069 50.4043 45.6718C50.5625 45.8591 50.704 46.0472 50.8301 46.2353C50.1576 37.7447 44.6742 30.6115 37.1115 27.5727ZM22.9638 11C20.7547 11 18.9638 12.7909 18.9638 15C18.9638 17.2091 20.7547 19 22.9638 19H34.9237C37.1329 19 38.9237 17.2091 38.9237 15C38.9237 12.7909 37.1329 11 34.9237 11H22.9638ZM26.9478 15C26.9478 16.1046 26.0541 17 24.9518 17C23.8494 17 22.9558 16.1046 22.9558 15C22.9558 13.8954 23.8494 13 24.9518 13C26.0541 13 26.9478 13.8954 26.9478 15ZM32.9357 17C34.0381 17 34.9317 16.1046 34.9317 15C34.9317 13.8954 34.0381 13 32.9357 13C31.8334 13 30.9398 13.8954 30.9398 15C30.9398 16.1046 31.8334 17 32.9357 17Z" fill="white"/>
</g>
</svg>
